<svg width="92" height="20" viewBox="0 0 92 20" fill="none" xmlns="http://www.w3.org/2000/svg">
<path d="M3.76953 19C2.96484 19 2.35156 18.8984 1.92969 18.6953C1.51562 18.4922 1.23438 18.1602 1.08594 17.6992C0.945312 17.2383 0.875 16.625 0.875 15.8594V5.33594C0.875 4.55469 0.945312 3.9375 1.08594 3.48438C1.23438 3.02344 1.51562 2.69531 1.92969 2.5C2.35156 2.29688 2.96484 2.19531 3.76953 2.19531H7.36719C9.04688 2.19531 10.5156 2.44531 11.7734 2.94531C13.0391 3.44531 14.0234 4.29297 14.7266 5.48828C15.4297 6.67578 15.7812 8.30859 15.7812 10.3867C15.7812 12.4648 15.4297 14.1367 14.7266 15.4023C14.0234 16.6602 13.0391 17.5742 11.7734 18.1445C10.5156 18.7148 9.04688 19 7.36719 19H3.76953ZM5.99609 5.27734C5.48047 5.27734 5.12891 5.38672 4.94141 5.60547C4.75391 5.82422 4.66016 6.19922 4.66016 6.73047V14.4648C4.66016 14.9883 4.75391 15.3633 4.94141 15.5898C5.12891 15.8164 5.48047 15.9297 5.99609 15.9297H6.53516C8.20703 15.9297 9.5 15.5195 10.4141 14.6992C11.3359 13.8789 11.7969 12.457 11.7969 10.4336C11.7969 9.08203 11.5859 8.03516 11.1641 7.29297C10.75 6.54297 10.1484 6.01953 9.35938 5.72266C8.57031 5.42578 7.62109 5.27734 6.51172 5.27734H5.99609ZM26.5719 19.293C24.6031 19.293 23.0445 18.7695 21.8961 17.7227C20.7477 16.6758 20.1734 15.1172 20.1734 13.0469C20.1734 10.9219 20.7672 9.33594 21.9547 8.28906C23.15 7.23438 24.7437 6.70703 26.7359 6.70703C28.6578 6.70703 30.1969 7.22656 31.3531 8.26562C32.5094 9.29688 33.0875 10.8203 33.0875 12.8359C33.0875 14.9375 32.5094 16.5391 31.3531 17.6406C30.1969 18.7422 28.6031 19.293 26.5719 19.293ZM26.6891 16.457C27.5484 16.457 28.1969 16.1914 28.6344 15.6602C29.0719 15.1211 29.2906 14.2031 29.2906 12.9062C29.2906 11.6719 29.068 10.8047 28.6227 10.3047C28.1852 9.79688 27.5328 9.54297 26.6656 9.54297C25.8297 9.54297 25.1695 9.81641 24.6852 10.3633C24.2086 10.9023 23.9703 11.7812 23.9703 13C23.9703 14.2734 24.1969 15.168 24.65 15.6836C25.1109 16.1992 25.7906 16.457 26.6891 16.457ZM43.7609 19.293C41.7922 19.293 40.2336 18.7695 39.0852 17.7227C37.9367 16.6758 37.3625 15.1172 37.3625 13.0469C37.3625 10.9219 37.9562 9.33594 39.1437 8.28906C40.3391 7.23438 41.9328 6.70703 43.925 6.70703C45.8469 6.70703 47.3859 7.22656 48.5422 8.26562C49.6984 9.29688 50.2766 10.8203 50.2766 12.8359C50.2766 14.9375 49.6984 16.5391 48.5422 17.6406C47.3859 18.7422 45.7922 19.293 43.7609 19.293ZM43.8781 16.457C44.7375 16.457 45.3859 16.1914 45.8234 15.6602C46.2609 15.1211 46.4797 14.2031 46.4797 12.9062C46.4797 11.6719 46.257 10.8047 45.8117 10.3047C45.3742 9.79688 44.7219 9.54297 43.8547 9.54297C43.0187 9.54297 42.3586 9.81641 41.8742 10.3633C41.3977 10.9023 41.1594 11.7812 41.1594 13C41.1594 14.2734 41.3859 15.168 41.8391 15.6836C42.3 16.1992 42.9797 16.457 43.8781 16.457ZM56.7313 19.2461C56.5672 19.3164 56.45 19.3516 56.3797 19.3516C56.3094 19.3516 56.2352 19.3242 56.157 19.2695C55.9773 19.1445 55.7703 18.8398 55.5359 18.3555C55.3094 17.8633 55.1961 17.1094 55.1961 16.0938V2.52344C55.1961 2.33594 55.2352 2.19141 55.3133 2.08984C55.6414 1.66016 56.1219 1.19531 56.7547 0.695312C56.8641 0.617187 56.9617 0.578125 57.0477 0.578125C57.1492 0.578125 57.2469 0.617187 57.3406 0.695312C57.6766 0.953125 57.9578 1.19531 58.1844 1.42188C58.4188 1.64844 58.618 1.87109 58.782 2.08984C58.8602 2.19141 58.8992 2.33594 58.8992 2.52344V15.3789C58.8992 15.8945 58.9422 16.3359 59.0281 16.7031C59.1141 17.0625 59.2156 17.3516 59.3328 17.5703C59.4656 17.8281 59.4148 18.0117 59.1805 18.1211L56.7313 19.2461ZM70.393 19.293C69.0727 19.293 67.9242 19.082 66.9477 18.6602C65.9711 18.2305 65.2133 17.5664 64.6742 16.668C64.1352 15.7695 63.8656 14.6094 63.8656 13.1875C63.8656 11.0547 64.4125 9.44141 65.5062 8.34766C66.6 7.25391 68.0531 6.70703 69.8656 6.70703C71.0453 6.70703 72.0414 6.91797 72.8539 7.33984C73.6742 7.76172 74.2953 8.34375 74.7172 9.08594C75.1469 9.82812 75.3617 10.6758 75.3617 11.6289C75.3617 12.5586 75.1234 13.207 74.6469 13.5742C74.1703 13.9414 73.475 14.125 72.5609 14.125H67.5336C67.5961 14.9297 67.8891 15.543 68.4125 15.9648C68.9437 16.3867 69.6625 16.5977 70.5687 16.5977C71.2875 16.5977 71.8617 16.4922 72.2914 16.2812C72.7289 16.0625 73.0336 15.8906 73.2055 15.7656C73.3539 15.6562 73.5219 15.6055 73.7094 15.6133C73.8578 15.6133 74.0687 15.6445 74.3422 15.707C74.6234 15.7617 74.9008 15.8672 75.1742 16.0234C75.3695 16.125 75.4672 16.2656 75.4672 16.4453C75.4672 16.5469 75.4477 16.6914 75.4086 16.8789C75.3852 16.9883 75.3461 17.1484 75.2914 17.3594C75.2367 17.5625 75.1664 17.7539 75.0805 17.9336C75.0336 18.0195 74.9594 18.1016 74.8578 18.1797C74.7016 18.2891 74.4477 18.4336 74.0961 18.6133C73.7523 18.793 73.2797 18.9492 72.6781 19.082C72.0766 19.2227 71.3148 19.293 70.393 19.293ZM67.5102 11.7227H71.3305C71.7289 11.7227 71.9281 11.5391 71.9281 11.1719C71.9281 10.6172 71.7523 10.1523 71.4008 9.77734C71.057 9.39453 70.5375 9.20312 69.8422 9.20312C69.0844 9.20312 68.5258 9.44531 68.1664 9.92969C67.8148 10.4141 67.5961 11.0117 67.5102 11.7227ZM86.2227 19.293C84.9023 19.293 83.7539 19.082 82.7773 18.6602C81.8008 18.2305 81.043 17.5664 80.5039 16.668C79.9648 15.7695 79.6953 14.6094 79.6953 13.1875C79.6953 11.0547 80.2422 9.44141 81.3359 8.34766C82.4297 7.25391 83.8828 6.70703 85.6953 6.70703C86.875 6.70703 87.8711 6.91797 88.6836 7.33984C89.5039 7.76172 90.125 8.34375 90.5469 9.08594C90.9766 9.82812 91.1914 10.6758 91.1914 11.6289C91.1914 12.5586 90.9531 13.207 90.4766 13.5742C90 13.9414 89.3047 14.125 88.3906 14.125H83.3633C83.4258 14.9297 83.7188 15.543 84.2422 15.9648C84.7734 16.3867 85.4922 16.5977 86.3984 16.5977C87.1172 16.5977 87.6914 16.4922 88.1211 16.2812C88.5586 16.0625 88.8633 15.8906 89.0352 15.7656C89.1836 15.6562 89.3516 15.6055 89.5391 15.6133C89.6875 15.6133 89.8984 15.6445 90.1719 15.707C90.4531 15.7617 90.7305 15.8672 91.0039 16.0234C91.1992 16.125 91.2969 16.2656 91.2969 16.4453C91.2969 16.5469 91.2773 16.6914 91.2383 16.8789C91.2148 16.9883 91.1758 17.1484 91.1211 17.3594C91.0664 17.5625 90.9961 17.7539 90.9102 17.9336C90.8633 18.0195 90.7891 18.1016 90.6875 18.1797C90.5312 18.2891 90.2773 18.4336 89.9258 18.6133C89.582 18.793 89.1094 18.9492 88.5078 19.082C87.9062 19.2227 87.1445 19.293 86.2227 19.293ZM83.3398 11.7227H87.1602C87.5586 11.7227 87.7578 11.5391 87.7578 11.1719C87.7578 10.6172 87.582 10.1523 87.2305 9.77734C86.8867 9.39453 86.3672 9.20312 85.6719 9.20312C84.9141 9.20312 84.3555 9.44531 83.9961 9.92969C83.6445 10.4141 83.4258 11.0117 83.3398 11.7227Z" fill="#808080"/>
</svg>
